<svg width="24" height="24" viewBox="0 0 24 24" fill="none" xmlns="http://www.w3.org/2000/svg">
<path d="M19.099 11.136C17.65 13.106 15.5 15.05 13.078 14.733C12.423 15.649 11.691 16.927 10.879 18.411L9 19C10.589 15.899 12.712 12.47 14.989 9.86402C14.003 10.506 12.383 11.887 10.973 13.343C9.702 10.687 11.042 8.22802 12.985 6.34902C12.929 7.23402 13.322 8.04102 13.616 8.45602C13.566 7.71602 13.652 6.39402 14.192 5.24902C15.274 4.33602 16.231 3.67902 17.324 3.10402C17.147 3.75102 17.299 4.52702 17.506 5.01102C17.601 4.34102 18 3.07402 18.461 2.54902C19.825 1.66902 21.845 0.965017 24 1.00102C23.762 2.32902 23.064 4.48502 22.123 5.82202C21.362 6.31102 20.357 6.59702 19.557 6.73502C20.22 6.92102 20.964 6.97502 21.609 6.92702C21.14 7.91402 20.663 8.81802 19.942 9.92702C18.947 10.482 17.675 10.727 16.807 10.773C17.414 11.092 18.521 11.278 19.099 11.136V11.136ZM18 15.145V21H2V9.00002H8.875C9.104 8.32702 9.422 7.65802 9.854 7.00002H0V23H20V13.212C19.426 13.891 18.761 14.567 18 15.145Z" fill="#00ACED"/>
</svg>
