<svg width="24" height="20" viewBox="0 0 24 20" fill="none" xmlns="http://www.w3.org/2000/svg">
<path d="M10.644 15.08C13.51 14.418 15.183 13.839 13.89 11.398C9.958 3.971 12.848 0 17.001 0C21.236 0 24.055 4.124 20.111 11.398C18.779 13.853 20.548 14.432 23.353 15.08C25.836 15.654 26 16.867 26 18.969V20H8C8 17.255 7.78 15.742 10.644 15.08ZM-2 20H5.809C5.774 11.823 9.245 14.687 9.245 8.873C9.245 6.362 7.606 5 5.497 5C2.382 5 0.215 7.979 3.164 13.549C4.133 15.379 2.133 15.814 -0.017 16.31C-1.879 16.74 -2 17.65 -2 19.227V20V20Z" fill="#999999"/>
</svg>
