<svg width="15" height="15" viewBox="0 0 15 15" fill="none" xmlns="http://www.w3.org/2000/svg">
<path d="M7.5 1.875C10.9462 1.875 13.75 4.17812 13.75 7.00812C13.75 10.1581 10.5338 12.1075 7.55437 12.1075C6.2875 12.1075 5.33688 11.8331 4.71188 11.6625L2.20938 12.41L2.99188 10.5975C2.39688 9.9725 1.25 8.98 1.25 7.00812C1.25 4.17812 4.05375 1.875 7.5 1.875V1.875ZM7.5 0.625C3.3575 0.625 0 3.48312 0 7.00812C0 8.50187 0.5825 9.8775 1.51688 10.8606L0 14.375L4.72688 12.9625C5.7175 13.2337 6.665 13.3575 7.55375 13.3575C11.99 13.3581 15 10.2756 15 7.00812C15 3.48312 11.6425 0.625 7.5 0.625V0.625Z" fill="#999999"/>
</svg>
