<svg width="24" height="22" viewBox="0 0 24 22" fill="none" xmlns="http://www.w3.org/2000/svg">
<path d="M19.099 10.136C17.65 12.106 15.5 14.05 13.078 13.733C12.423 14.649 11.691 15.927 10.879 17.411L9 18C10.589 14.899 12.712 11.47 14.989 8.86402C14.003 9.50602 12.383 10.887 10.973 12.343C9.702 9.68702 11.042 7.22802 12.985 5.34902C12.929 6.23402 13.322 7.04102 13.616 7.45602C13.566 6.71602 13.652 5.39402 14.192 4.24902C15.274 3.33602 16.231 2.67902 17.324 2.10402C17.147 2.75102 17.299 3.52702 17.506 4.01102C17.601 3.34102 18 2.07402 18.461 1.54902C19.825 0.669017 21.845 -0.0349834 24 0.00101657C23.762 1.32902 23.064 3.48502 22.123 4.82202C21.362 5.31102 20.357 5.59702 19.557 5.73502C20.22 5.92102 20.964 5.97502 21.609 5.92702C21.14 6.91402 20.663 7.81802 19.942 8.92702C18.947 9.48202 17.675 9.72702 16.807 9.77302C17.414 10.092 18.521 10.278 19.099 10.136V10.136ZM18 14.145V20H2V8.00002H8.875C9.104 7.32702 9.422 6.65802 9.854 6.00002H0V22H20V12.212C19.426 12.891 18.761 13.567 18 14.145Z" fill="white"/>
</svg>
